<?xml version="1.0" encoding="UTF-8" standalone="no"?>
<!DOCTYPE svg PUBLIC "-//W3C//DTD SVG 1.1//EN"
 "http://www.w3.org/Graphics/SVG/1.1/DTD/svg11.dtd">
<!-- Generated by graphviz version 2.40.1 (20161225.0304)
 -->
<!-- Title: %0 Pages: 1 -->
<svg width="835pt" height="876pt"
 viewBox="0.00 0.00 835.49 876.00" xmlns="http://www.w3.org/2000/svg" xmlns:xlink="http://www.w3.org/1999/xlink">
<g id="graph0" class="graph" transform="scale(1 1) rotate(0) translate(144 732)">
<title>%0</title>
<polygon fill="#ffffff" stroke="transparent" points="-144,144 -144,-732 691.4896,-732 691.4896,144 -144,144"/>
<!-- bookings -->
<g id="node1" class="node">
<title>bookings</title>
<polygon fill="#4477c9" stroke="transparent" points="454.4896,0 454.4896,-298 547.4896,-298 547.4896,0 454.4896,0"/>
<polygon fill="#add8e6" stroke="transparent" points="454.9896,-280 454.9896,-298 547.9896,-298 547.9896,-280 454.9896,-280"/>
<polygon fill="none" stroke="#000000" points="454.9896,-280 454.9896,-298 547.9896,-298 547.9896,-280 454.9896,-280"/>
<text text-anchor="start" x="482.739" y="-286.9" font-family="Times,serif" font-weight="bold" font-style="italic" font-size="9.00" fill="#000000"> bookings </text>
<polygon fill="none" stroke="#000000" points="454.9896,-260 454.9896,-280 547.9896,-280 547.9896,-260 454.9896,-260"/>
<text text-anchor="start" x="459.9896" y="-266.9" font-family="Times,serif" font-size="9.00" fill="#000000">car: ObjectId</text>
<polygon fill="none" stroke="#000000" points="454.9896,-240 454.9896,-260 547.9896,-260 547.9896,-240 454.9896,-240"/>
<text text-anchor="start" x="459.9896" y="-246.9" font-family="Times,serif" font-size="9.00" fill="#000000">user: ObjectId</text>
<polygon fill="none" stroke="#000000" points="454.9896,-220 454.9896,-240 547.9896,-240 547.9896,-220 454.9896,-220"/>
<text text-anchor="start" x="459.9896" y="-226.9" font-family="Times,serif" font-size="9.00" fill="#000000">fromSlot: Date</text>
<polygon fill="none" stroke="#000000" points="454.9896,-200 454.9896,-220 547.9896,-220 547.9896,-200 454.9896,-200"/>
<text text-anchor="start" x="459.9896" y="-206.9" font-family="Times,serif" font-size="9.00" fill="#000000">toSlot: Date</text>
<polygon fill="none" stroke="#000000" points="454.9896,-180 454.9896,-200 547.9896,-200 547.9896,-180 454.9896,-180"/>
<text text-anchor="start" x="459.87" y="-186.9" font-family="Times,serif" font-size="9.00" fill="#000000">pickupLocation: String</text>
<polygon fill="none" stroke="#000000" points="454.9896,-160 454.9896,-180 547.9896,-180 547.9896,-160 454.9896,-160"/>
<text text-anchor="start" x="459.9896" y="-166.9" font-family="Times,serif" font-size="9.00" fill="#000000">dropLocation: String</text>
<polygon fill="none" stroke="#000000" points="454.9896,-140 454.9896,-160 547.9896,-160 547.9896,-140 454.9896,-140"/>
<text text-anchor="start" x="459.9896" y="-146.9" font-family="Times,serif" font-size="9.00" fill="#000000">totalHours: Number</text>
<polygon fill="none" stroke="#000000" points="454.9896,-120 454.9896,-140 547.9896,-140 547.9896,-120 454.9896,-120"/>
<text text-anchor="start" x="459.9896" y="-126.9" font-family="Times,serif" font-size="9.00" fill="#000000">totalAmount: Number</text>
<polygon fill="none" stroke="#000000" points="454.9896,-100 454.9896,-120 547.9896,-120 547.9896,-100 454.9896,-100"/>
<text text-anchor="start" x="459.9896" y="-106.9" font-family="Times,serif" font-size="9.00" fill="#000000">paymentId: String</text>
<polygon fill="none" stroke="#000000" points="454.9896,-80 454.9896,-100 547.9896,-100 547.9896,-80 454.9896,-80"/>
<text text-anchor="start" x="459.9896" y="-86.9" font-family="Times,serif" font-size="9.00" fill="#000000">status: String</text>
<polygon fill="none" stroke="#000000" points="454.9896,-60 454.9896,-80 547.9896,-80 547.9896,-60 454.9896,-60"/>
<text text-anchor="start" x="459.9896" y="-66.9" font-family="Times,serif" font-size="9.00" fill="#000000">_id: ObjectId</text>
<polygon fill="none" stroke="#000000" points="454.9896,-40 454.9896,-60 547.9896,-60 547.9896,-40 454.9896,-40"/>
<text text-anchor="start" x="459.9896" y="-46.9" font-family="Times,serif" font-size="9.00" fill="#000000">createdAt: Date</text>
<polygon fill="none" stroke="#000000" points="454.9896,-20 454.9896,-40 547.9896,-40 547.9896,-20 454.9896,-20"/>
<text text-anchor="start" x="459.9896" y="-26.9" font-family="Times,serif" font-size="9.00" fill="#000000">updatedAt: Date</text>
<polygon fill="none" stroke="#000000" points="454.9896,0 454.9896,-20 547.9896,-20 547.9896,0 454.9896,0"/>
<text text-anchor="start" x="459.9896" y="-6.9" font-family="Times,serif" font-size="9.00" fill="#000000">__v: Number</text>
</g>
<!-- cars -->
<g id="node2" class="node">
<title>cars</title>
<polygon fill="#4477c9" stroke="transparent" points="202.9594,-270 202.9594,-588 303.9594,-588 303.9594,-270 202.9594,-270"/>
<polygon fill="#add8e6" stroke="transparent" points="203.4594,-570 203.4594,-588 304.4594,-588 304.4594,-570 203.4594,-570"/>
<polygon fill="none" stroke="#000000" points="203.4594,-570 203.4594,-588 304.4594,-588 304.4594,-570 203.4594,-570"/>
<text text-anchor="start" x="244.4662" y="-576.9" font-family="Times,serif" font-weight="bold" font-style="italic" font-size="9.00" fill="#000000"> cars </text>
<polygon fill="none" stroke="#000000" points="203.4594,-550 203.4594,-570 304.4594,-570 304.4594,-550 203.4594,-550"/>
<text text-anchor="start" x="208.4594" y="-556.9" font-family="Times,serif" font-size="9.00" fill="#000000">name: String</text>
<polygon fill="none" stroke="#000000" points="203.4594,-530 203.4594,-550 304.4594,-550 304.4594,-530 203.4594,-530"/>
<text text-anchor="start" x="208.4594" y="-536.9" font-family="Times,serif" font-size="9.00" fill="#000000">brand: String</text>
<polygon fill="none" stroke="#000000" points="203.4594,-510 203.4594,-530 304.4594,-530 304.4594,-510 203.4594,-510"/>
<text text-anchor="start" x="208.4594" y="-516.9" font-family="Times,serif" font-size="9.00" fill="#000000">description: String</text>
<polygon fill="none" stroke="#000000" points="203.4594,-490 203.4594,-510 304.4594,-510 304.4594,-490 203.4594,-490"/>
<text text-anchor="start" x="208.4594" y="-496.9" font-family="Times,serif" font-size="9.00" fill="#000000">year: Number</text>
<polygon fill="none" stroke="#000000" points="203.4594,-470 203.4594,-490 304.4594,-490 304.4594,-470 203.4594,-470"/>
<text text-anchor="start" x="208.4594" y="-476.9" font-family="Times,serif" font-size="9.00" fill="#000000">bodyType: String</text>
<polygon fill="none" stroke="#000000" points="203.4594,-450 203.4594,-470 304.4594,-470 304.4594,-450 203.4594,-450"/>
<text text-anchor="start" x="208.4594" y="-456.9" font-family="Times,serif" font-size="9.00" fill="#000000">fuelType: String</text>
<polygon fill="none" stroke="#000000" points="203.4594,-430 203.4594,-450 304.4594,-450 304.4594,-430 203.4594,-430"/>
<text text-anchor="start" x="208.4594" y="-436.9" font-family="Times,serif" font-size="9.00" fill="#000000">rentPerHour: Number</text>
<polygon fill="none" stroke="#000000" points="203.4594,-410 203.4594,-430 304.4594,-430 304.4594,-410 203.4594,-410"/>
<text text-anchor="start" x="208.0981" y="-416.9" font-family="Times,serif" font-size="9.00" fill="#000000">seatingCapacity: Number</text>
<polygon fill="none" stroke="#000000" points="203.4594,-390 203.4594,-410 304.4594,-410 304.4594,-390 203.4594,-390"/>
<text text-anchor="start" x="208.4594" y="-396.9" font-family="Times,serif" font-size="9.00" fill="#000000">carImage: String</text>
<polygon fill="none" stroke="#000000" points="203.4594,-370 203.4594,-390 304.4594,-390 304.4594,-370 203.4594,-370"/>
<text text-anchor="start" x="208.4594" y="-376.9" font-family="Times,serif" font-size="9.00" fill="#000000">isActive: Boolean</text>
<polygon fill="none" stroke="#000000" points="203.4594,-350 203.4594,-370 304.4594,-370 304.4594,-350 203.4594,-350"/>
<text text-anchor="start" x="208.4594" y="-356.9" font-family="Times,serif" font-size="9.00" fill="#000000">addedBy: ObjectId</text>
<polygon fill="none" stroke="#000000" points="203.4594,-330 203.4594,-350 304.4594,-350 304.4594,-330 203.4594,-330"/>
<text text-anchor="start" x="208.4594" y="-336.9" font-family="Times,serif" font-size="9.00" fill="#000000">_id: ObjectId</text>
<polygon fill="none" stroke="#000000" points="203.4594,-310 203.4594,-330 304.4594,-330 304.4594,-310 203.4594,-310"/>
<text text-anchor="start" x="208.4594" y="-316.9" font-family="Times,serif" font-size="9.00" fill="#000000">createdAt: Date</text>
<polygon fill="none" stroke="#000000" points="203.4594,-290 203.4594,-310 304.4594,-310 304.4594,-290 203.4594,-290"/>
<text text-anchor="start" x="208.4594" y="-296.9" font-family="Times,serif" font-size="9.00" fill="#000000">updatedAt: Date</text>
<polygon fill="none" stroke="#000000" points="203.4594,-270 203.4594,-290 304.4594,-290 304.4594,-270 203.4594,-270"/>
<text text-anchor="start" x="208.4594" y="-276.9" font-family="Times,serif" font-size="9.00" fill="#000000">__v: Number</text>
</g>
<!-- cars&#45;&gt;bookings -->
<g id="edge1" class="edge">
<title>cars:11&#45;&gt;bookings:0</title>
<path fill="none" stroke="#000000" stroke-dasharray="5,2" d="M303.9594,-340C377.9432,-340 381.0058,-270 454.9896,-270"/>
<text text-anchor="middle" x="379.2245" y="-336.2" font-family="Times,serif" font-size="14.00" fill="#000000">cars&#45;bookings</text>
<text text-anchor="middle" x="449.9363" y="-257.4" font-family="Times,serif" font-size="14.00" fill="#000000">N</text>
<text text-anchor="middle" x="307.4594" y="-327.4" font-family="Times,serif" font-size="14.00" fill="#000000">1</text>
</g>
<!-- users -->
<g id="node3" class="node">
<title>users</title>
<polygon fill="#4477c9" stroke="transparent" points="0,-168 0,-366 75,-366 75,-168 0,-168"/>
<polygon fill="#add8e6" stroke="transparent" points=".5,-348 .5,-366 75.5,-366 75.5,-348 .5,-348"/>
<polygon fill="none" stroke="#000000" points=".5,-348 .5,-366 75.5,-366 75.5,-348 .5,-348"/>
<text text-anchor="start" x="26.5043" y="-354.9" font-family="Times,serif" font-weight="bold" font-style="italic" font-size="9.00" fill="#000000"> users </text>
<polygon fill="none" stroke="#000000" points=".5,-328 .5,-348 75.5,-348 75.5,-328 .5,-328"/>
<text text-anchor="start" x="5.5" y="-334.9" font-family="Times,serif" font-size="9.00" fill="#000000">name: String</text>
<polygon fill="none" stroke="#000000" points=".5,-308 .5,-328 75.5,-328 75.5,-308 .5,-308"/>
<text text-anchor="start" x="5.5" y="-314.9" font-family="Times,serif" font-size="9.00" fill="#000000">email: String</text>
<polygon fill="none" stroke="#000000" points=".5,-288 .5,-308 75.5,-308 75.5,-288 .5,-288"/>
<text text-anchor="start" x="5.5" y="-294.9" font-family="Times,serif" font-size="9.00" fill="#000000">password: String</text>
<polygon fill="none" stroke="#000000" points=".5,-268 .5,-288 75.5,-288 75.5,-268 .5,-268"/>
<text text-anchor="start" x="5.1275" y="-274.9" font-family="Times,serif" font-size="9.00" fill="#000000">isAdmin: Boolean</text>
<polygon fill="none" stroke="#000000" points=".5,-248 .5,-268 75.5,-268 75.5,-248 .5,-248"/>
<text text-anchor="start" x="5.5" y="-254.9" font-family="Times,serif" font-size="9.00" fill="#000000">isActive: Boolean</text>
<polygon fill="none" stroke="#000000" points=".5,-228 .5,-248 75.5,-248 75.5,-228 .5,-228"/>
<text text-anchor="start" x="5.5" y="-234.9" font-family="Times,serif" font-size="9.00" fill="#000000">_id: ObjectId</text>
<polygon fill="none" stroke="#000000" points=".5,-208 .5,-228 75.5,-228 75.5,-208 .5,-208"/>
<text text-anchor="start" x="5.5" y="-214.9" font-family="Times,serif" font-size="9.00" fill="#000000">createdAt: Date</text>
<polygon fill="none" stroke="#000000" points=".5,-188 .5,-208 75.5,-208 75.5,-188 .5,-188"/>
<text text-anchor="start" x="5.5" y="-194.9" font-family="Times,serif" font-size="9.00" fill="#000000">updatedAt: Date</text>
<polygon fill="none" stroke="#000000" points=".5,-168 .5,-188 75.5,-188 75.5,-168 .5,-168"/>
<text text-anchor="start" x="5.5" y="-174.9" font-family="Times,serif" font-size="9.00" fill="#000000">__v: Number</text>
</g>
<!-- users&#45;&gt;bookings -->
<g id="edge2" class="edge">
<title>users:5&#45;&gt;bookings:1</title>
<path fill="none" stroke="#000000" stroke-dasharray="5,2" d="M75,-238C91.2207,-238 94.9926,-234.622 111,-232 195.8804,-218.0964 218.439,-208.0205 303.9594,-217.2 372.2564,-224.5308 386.3003,-250 454.9896,-250"/>
<text text-anchor="middle" x="253.4594" y="-221.2" font-family="Times,serif" font-size="14.00" fill="#000000">users&#45;bookings</text>
<text text-anchor="middle" x="449.9363" y="-237.4" font-family="Times,serif" font-size="14.00" fill="#000000">N</text>
<text text-anchor="middle" x="78.5" y="-225.4" font-family="Times,serif" font-size="14.00" fill="#000000">1</text>
</g>
<!-- users&#45;&gt;cars -->
<g id="edge3" class="edge">
<title>users:5&#45;&gt;cars:10</title>
<path fill="none" stroke="#000000" stroke-dasharray="5,2" d="M75,-238C153.738,-238 124.7214,-360 203.4594,-360"/>
<text text-anchor="middle" x="138.9797" y="-348.2" font-family="Times,serif" font-size="14.00" fill="#000000">users&#45;cars</text>
<text text-anchor="middle" x="198.4061" y="-347.4" font-family="Times,serif" font-size="14.00" fill="#000000">N</text>
<text text-anchor="middle" x="78.5" y="-242.2" font-family="Times,serif" font-size="14.00" fill="#000000">1</text>
</g>
</g>
</svg>
